# Blender v2.93.6 OBJ File: 'rubic.blend'
# www.blender.org
mtllib rubic3.mtl
o Cube.002_Cube.001
v 1.088902 1.000000 2.969955
v 0.988902 1.100000 2.969955
v 1.088902 1.100000 3.069955
v 1.088902 1.000000 1.169955
v 2.888902 1.000000 2.969955
v 2.888902 1.100000 3.069955
v 2.988902 1.100000 2.969955
v 2.888902 1.000000 1.169955
v 2.988902 1.100000 1.169955
v 2.888902 1.100000 1.069955
v 1.088902 1.100000 1.069955
v 2.888902 2.900000 1.069955
v 2.888902 3.000000 1.169955
v 2.988902 2.900000 1.169955
v 1.088902 2.900000 1.069955
v 1.088902 3.000000 1.169955
v 0.988902 2.900000 1.169955
v 0.988902 2.900000 2.969955
v 0.988902 1.100000 1.169955
v 1.088902 2.900000 3.069955
v 1.088902 3.000000 2.969955
v 2.888902 3.000000 2.969955
v 2.988902 2.900000 2.969955
v 2.888902 2.900000 3.069955
v 1.088902 3.015610 2.969955
v 1.088902 3.015610 1.169955
v 2.888902 3.015610 2.969955
v 2.888902 3.015610 1.169955
v 1.088902 1.100000 3.070790
v 1.088902 2.900000 3.070790
v 2.888902 1.100000 3.070790
v 2.888902 2.900000 3.070790
v 2.994698 2.900000 2.986615
v 2.994698 2.900000 1.186614
v 2.994698 1.100000 2.986615
v 2.994698 1.100000 1.186614
vt 0.137500 0.512500
vt 0.137500 0.737500
vt 0.125000 0.737500
vt 0.125000 0.512500
vt 0.137500 0.750000
vt 0.362500 0.737500
vt 0.362500 0.750000
vt 0.362500 0.512500
vt 0.375000 0.737500
vt 0.387500 0.512500
vt 0.387500 0.737500
vt 0.362500 0.500000
vt 0.375000 0.512500
vt 0.137500 0.500000
vt 0.612500 0.512500
vt 0.387500 0.487500
vt 0.612500 0.487500
vt 0.387500 0.262500
vt 0.612500 0.262500
vt 0.625000 0.262500
vt 0.625000 0.487500
vt 0.625000 0.512500
vt 0.625000 0.512500
vt 0.612500 0.500000
vt 0.625000 0.262500
vt 0.612500 0.250000
vt 0.387500 0.237500
vt 0.612500 0.237500
vt 0.625000 0.012500
vt 0.625000 0.237500
vt 0.612500 0.012500
vt 0.387500 0.012500
vt 0.387500 0.000000
vt 0.612500 0.000000
vt 0.612500 0.987500
vt 0.625000 0.987500
vt 0.612500 1.000000
vt 0.625000 0.762500
vt 0.612500 0.762500
vt 0.637500 0.512500
vt 0.862500 0.512500
vt 0.862500 0.737500
vt 0.637500 0.737500
vt 0.612500 0.737500
vt 0.625000 0.762500
vt 0.612500 0.750000
vt 0.387500 0.762500
vt 0.387500 0.987500
vt 0.000000 0.000000
vt 1.000000 0.000000
vt 1.000000 1.000000
vt 0.000000 1.000000
vt 0.000000 0.000000
vt 1.000000 0.000000
vt 1.000000 1.000000
vt 0.000000 1.000000
vt 0.000000 0.000000
vt 1.000000 0.000000
vt 1.000000 1.000000
vt 0.000000 1.000000
vn -0.7071 -0.7071 0.0000
vn -0.5773 -0.5774 0.5774
vn 0.0000 -0.7071 0.7071
vn 0.0000 -1.0000 0.0000
vn 0.5773 -0.5774 0.5774
vn 0.7071 -0.7071 0.0000
vn 0.5773 -0.5774 -0.5774
vn 0.0000 -0.7071 -0.7071
vn 0.7071 0.0000 -0.7071
vn 0.0000 0.0000 -1.0000
vn 0.0000 0.7071 -0.7071
vn 0.5773 0.5774 -0.5773
vn -0.5773 0.5774 -0.5774
vn -0.7071 0.0000 -0.7071
vn -0.7071 0.7071 0.0000
vn -1.0000 0.0000 0.0000
vn -0.5773 -0.5774 -0.5774
vn -0.7071 0.0000 0.7071
vn -0.5773 0.5774 0.5773
vn 0.0000 0.7071 0.7071
vn 0.0000 1.0000 0.0000
vn 0.7071 0.7071 0.0000
vn 0.5773 0.5774 0.5773
vn 0.7071 0.0000 0.7071
vn 0.0000 0.0000 1.0000
vn 1.0000 0.0000 0.0000
usemtl Material.001
s off
f 4/1/1 1/2/1 2/3/1 19/4/1
f 1/2/2 3/5/2 2/3/2
f 1/2/3 5/6/3 6/7/3 3/5/3
f 4/1/4 8/8/4 5/6/4 1/2/4
f 5/6/5 7/9/5 6/7/5
f 5/6/6 8/8/6 9/10/6 7/11/6
f 8/8/7 10/12/7 9/13/7
f 8/8/8 4/1/8 11/14/8 10/12/8
f 14/15/9 9/10/9 10/16/9 12/17/9
f 11/18/10 15/19/10 12/17/10 10/16/10
f 16/20/11 13/21/11 12/17/11 15/19/11
f 13/22/12 14/23/12 12/24/12
f 16/20/13 15/25/13 17/26/13
f 15/19/14 11/18/14 19/27/14 17/28/14
f 21/29/15 16/30/15 17/28/15 18/31/15
f 2/32/16 18/31/16 17/28/16 19/27/16
f 4/1/17 19/4/17 11/14/17
f 3/33/18 20/34/18 18/31/18 2/32/18
f 20/35/19 21/36/19 18/37/19
f 22/38/20 21/36/20 20/35/20 24/39/20
f 13/40/21 16/41/21 21/42/21 22/43/21
f 13/40/22 22/43/22 23/44/22 14/15/22
f 22/38/23 24/45/23 23/46/23
f 24/39/24 6/47/24 7/11/24 23/44/24
f 6/47/25 24/39/25 20/35/25 3/48/25
f 9/10/26 14/15/26 23/44/26 7/11/26
usemtl Material.002
f 25/49/21 27/50/21 28/51/21 26/52/21
usemtl Material.016
f 29/53/25 31/54/25 32/55/25 30/56/25
usemtl Material.009
f 33/57/26 35/58/26 36/59/26 34/60/26
